<svg height="800" width="800" version="1.1" id="Layer_1" xmlns="http://www.w3.org/2000/svg" viewBox="0 0 512 512" xml:space="preserve"><path style="fill:#f7b239" d="M92.483 73.768a33.705 33.705 0 0 1-2.506-12.8c0-18.621 15.091-33.725 33.725-33.725 9.337 0 17.785 3.8 23.902 9.93C153.613 19.684 170.199 7.1 189.736 7.1c13.245 0 25.142 5.78 33.293 14.969C227.786 9.189 240.168 0 254.693 0c15.36 0 28.308 10.28 32.391 24.32 8.152-10.469 20.871-17.219 35.166-17.219 19.537 0 36.136 12.584 42.146 30.073 6.104-6.131 14.552-9.93 23.902-9.93 18.621 0 33.725 15.104 33.725 33.725 0 4.527-.903 8.852-2.52 12.8 22.757 1.994 40.61 21.086 40.61 44.369 0 11.587-4.433 22.151-11.695 30.073l-67.112 79.859-105.095 29.642-125.305-33.684-60.632-20.211-26.705-55.606c-7.249-7.923-11.682-18.486-11.682-30.073 0-23.283 17.839-42.375 40.596-44.37z"/><path style="fill:#f95428" d="M448.418 148.211H63.138L108.14 512h295.707l45.002-363.789z"/><path style="fill:#f2f2f2" d="M381.561 148.211 352.256 512H292.15l3.665-120.994c19.847-12.989 21.41-106.024 3.597-119.283l.013-.013 3.732-123.5h78.404zM216.185 391.02 219.837 512h-60.12l-29.292-363.789h78.417l3.732 123.486.013.013c-17.811 13.258-16.248 106.321 3.598 119.31z"/><path style="fill:#e09b2d" d="M189.489 73.768a33.705 33.705 0 0 1-2.506-12.8c0-18.621 15.091-33.725 33.725-33.725 9.337 0 17.785 3.8 23.902 9.93 4.952-14.411 17.094-25.473 32.143-28.927C270.839 3.119 263.136 0 254.693 0c-14.525 0-26.907 9.189-31.663 22.07-8.152-9.189-20.049-14.969-33.293-14.969-19.537 0-36.123 12.584-42.132 30.073-6.117-6.131-14.565-9.93-23.902-9.93-18.634 0-33.725 15.104-33.725 33.725 0 4.527.889 8.852 2.506 12.8-22.757 1.994-40.596 21.086-40.596 44.369 0 11.587 4.433 22.151 11.682 30.073h97.005c-7.249-7.923-11.682-18.486-11.682-30.073-.001-23.283 17.838-42.375 40.596-44.37z"/><path style="fill:#e54728" d="M130.425 148.211 159.717 512H108.14L63.138 148.211h.431z"/><path style="fill:#f7b239" d="M299.412 271.724c17.812 13.258 29.346 34.466 29.346 58.382 0 25.492-13.096 47.912-32.943 60.901-11.439 7.505-25.128 11.857-39.828 11.857-14.686 0-28.376-4.352-39.801-11.843-19.847-12.989-32.957-35.422-32.957-60.915 0-23.916 11.547-45.137 29.359-58.395 12.113-9.027 27.136-14.363 43.399-14.363a72.485 72.485 0 0 1 43.425 14.376z"/></svg>